<svg xmlns="http://www.w3.org/2000/svg" viewBox="0 0 512 512" width="50" height="50">
  <path d="M98.8 366.6h103.5c3.9 8.5 12.5 14.5 22.4 14.5h62.4c10 0 18.6-6 22.4-14.5h103.6c6.8 0 12.3-5.5 12.3-12.3s-5.5-12.2-12.3-12.2H299.5c-6.8 0-12.3 5.5-12.3 12.2l-.1 2.3-62.5-.1v-2.2c0-6.8-5.5-12.2-12.3-12.2H98.8c-6.8 0-12.3 5.5-12.3 12.2s5.5 12.3 12.3 12.3z"/>
  <path d="M58.7 424.7h394.6c26 0 47.1-21.1 47.1-47.1v-23.2c0-6.8-5.5-12.2-12.3-12.2h-23.2V119.4c0-.4 0-.8-.1-1.2-1.7-17.6-16-30.9-33.1-30.9H79c-17.7 0-32.1 14.4-32.1 32.1v222.7H23.8c-6.8 0-12.3 5.5-12.3 12.2v23.2c0 26 21.2 47.2 47.2 47.2zM36 366.6h23.1c6.8 0 12.3-5.5 12.3-12.3V119.4c0-4.2 3.4-7.6 7.6-7.6h352.8c4.3 0 8 3.6 8.7 8.3v234.2c0 6.8 5.6 12.3 12.3 12.3H476v10.9c0 12.5-10.2 22.6-22.6 22.6H58.7C46.2 400.2 36 390 36 377.6v-11z"/>
  <path d="M226.1 277.4c2.3 2.3 5.4 3.6 8.7 3.6 3.2 0 6.3-1.3 8.6-3.6l72.8-72.4c4.8-4.8 4.8-12.5.1-17.3-4.8-4.8-12.5-4.8-17.3 0l-64.1 63.8-21.8-21.9c-4.8-4.8-12.5-4.8-17.3 0-4.8 4.8-4.8 12.5-.1 17.3l30.4 30.5z"/>
</svg>
