<svg enable-background="new 0 0 201.6 101.1" viewBox="0 0 201.6 101.1" xmlns="http://www.w3.org/2000/svg"><path d="m192.5 76.8c-.7 5.4-5.8 10.3-11.3 10.8l-148 13.5c-5.5.5-11-3.5-12.4-8.8l-20.5-82.6c-1.3-5.3 2.1-9.7 7.6-9.7h185c5.5 0 9.4 4.5 8.7 9.9z" fill="#f5a408"/><g fill="#fff"><path d="m30.7 21.6h13.9l11.3 18.4 11.3-18.4h13.9v47.4h-13.1v-27.2l-12.1 18.6h-.3l-12-18.4v27h-12.9z"/><path d="m88.1 21.6h38.1v11.2h-25.2v7.2h22.8v10.4h-22.8v7.5h25.5v11.1h-38.4z"/><path d="m146.2 33.1h-14.2v-11.5h41.6v11.5h-14.2v35.9h-13.1v-35.9z"/></g></svg>